<svg xmlns="http://www.w3.org/2000/svg" version="1.1" xmlns:xlink="http://www.w3.org/1999/xlink" xmlns:svgjs="http://svgjs.com/svgjs" width="200" height="200"><svg version="1.1" id="SvgjsSvg1000" xmlns="http://www.w3.org/2000/svg" xmlns:xlink="http://www.w3.org/1999/xlink" x="0px" y="0px" viewBox="0 0 200 200" style="enable-background:new 0 0 200 200;" xml:space="preserve">
<style type="text/css">
	.st0{fill:#076DC2;}
	.st1{fill:#FFFFFF;}
</style>
<circle class="st0" cx="100" cy="100" r="100"></circle>
<g>
	<path class="st1" d="M119.5,53.1l-13.4,80H83.6l7.1-42.6c0.7-4.4,1.7-8.9,2.9-13.7c0.9-3.9,1.6-6.8,1.9-8.8c-0.5,1.2-1.2,3-2.1,5.5
		c-1.9,5.1-3.7,9.5-5.3,13.1L67.5,133H53.1l-5.5-46.5c-0.5-4.1-0.9-8.5-1.1-13.1c-0.2-2.8-0.3-4.9-0.5-6.4
		C45,78,43.8,87.5,42.5,95.5L36.2,133H18.1l13.3-80h32.2l4.3,35.4c0.4,2.9,0.7,4.9,0.9,6.2c0.5-1.8,1.4-3.8,2.4-6.2l15.8-35.4H119.5
		z"></path>
	<path class="st1" d="M124.1,93.9h21.1l-1.6,9.5c2.7-4.6,5.4-7.7,8.1-9s5.5-2.1,8.6-2.1c6.1,0,11,2.3,14.7,6.8
		c3.7,4.6,5.6,10.7,5.6,18.4c0,9.4-2.6,17.9-7.7,25.5c-5.1,7.6-11.9,11.4-20.3,11.4c-6.6,0-11.5-2.8-14.8-8.3l-4.3,25.8h-22.5
		L124.1,93.9z M143.1,115.1c-1.7,9.3-2.5,15.2-2.5,17.8c0,2.1,0.5,3.8,1.6,5.2c1.1,1.3,2.6,2,4.5,2c2.3,0,4.1-1,5.5-2.9
		s2.6-5.4,3.6-10.3c1-4.9,1.5-8.6,1.5-11c0-5.8-2.1-8.7-6.4-8.7C147.1,107.1,144.5,109.8,143.1,115.1z"></path>
</g>
</svg><style>@media (prefers-color-scheme: light) { :root { filter: none; } }
</style></svg>